<mxfile host="app.diagrams.net" modified="2023-05-09T07:18:22.935Z" agent="Mozilla/5.0 (Windows NT 10.0; Win64; x64) AppleWebKit/537.36 (KHTML, like Gecko) Chrome/113.0.0.0 Safari/537.36" etag="4uHKjCy4k96dOy6ivYZM" version="21.1.2" type="device">
  <diagram name="Página-1" id="HMiQe1yscgGhobdegkLz">
    <mxGraphModel dx="1562" dy="829" grid="0" gridSize="10" guides="1" tooltips="1" connect="1" arrows="1" fold="1" page="1" pageScale="1" pageWidth="827" pageHeight="1169" math="0" shadow="0">
      <root>
        <mxCell id="0" />
        <mxCell id="1" parent="0" />
        <mxCell id="H6zXH7FBifV2kAMAosfw-3" style="edgeStyle=orthogonalEdgeStyle;rounded=0;orthogonalLoop=1;jettySize=auto;html=1;entryX=0;entryY=0.5;entryDx=0;entryDy=0;" parent="1" source="H6zXH7FBifV2kAMAosfw-1" target="H6zXH7FBifV2kAMAosfw-2" edge="1">
          <mxGeometry relative="1" as="geometry" />
        </mxCell>
        <mxCell id="H6zXH7FBifV2kAMAosfw-1" value="PISA 2018" style="shape=cylinder3;whiteSpace=wrap;html=1;boundedLbl=1;backgroundOutline=1;size=15;" parent="1" vertex="1">
          <mxGeometry x="140" y="330" width="100" height="120" as="geometry" />
        </mxCell>
        <mxCell id="H6zXH7FBifV2kAMAosfw-6" style="edgeStyle=orthogonalEdgeStyle;rounded=0;orthogonalLoop=1;jettySize=auto;html=1;entryX=0;entryY=0.5;entryDx=0;entryDy=0;" parent="1" source="H6zXH7FBifV2kAMAosfw-2" target="H6zXH7FBifV2kAMAosfw-4" edge="1">
          <mxGeometry relative="1" as="geometry" />
        </mxCell>
        <mxCell id="H6zXH7FBifV2kAMAosfw-7" style="edgeStyle=orthogonalEdgeStyle;rounded=0;orthogonalLoop=1;jettySize=auto;html=1;entryX=0;entryY=0.5;entryDx=0;entryDy=0;" parent="1" source="H6zXH7FBifV2kAMAosfw-2" target="H6zXH7FBifV2kAMAosfw-5" edge="1">
          <mxGeometry relative="1" as="geometry">
            <Array as="points">
              <mxPoint x="480" y="390" />
              <mxPoint x="480" y="520" />
            </Array>
          </mxGeometry>
        </mxCell>
        <mxCell id="H6zXH7FBifV2kAMAosfw-32" style="edgeStyle=orthogonalEdgeStyle;rounded=0;orthogonalLoop=1;jettySize=auto;html=1;entryX=0;entryY=0.5;entryDx=0;entryDy=0;" parent="1" source="H6zXH7FBifV2kAMAosfw-2" target="H6zXH7FBifV2kAMAosfw-31" edge="1">
          <mxGeometry relative="1" as="geometry" />
        </mxCell>
        <mxCell id="H6zXH7FBifV2kAMAosfw-2" value="Limpieza de datos" style="rounded=0;whiteSpace=wrap;html=1;" parent="1" vertex="1">
          <mxGeometry x="330" y="360" width="120" height="60" as="geometry" />
        </mxCell>
        <mxCell id="H6zXH7FBifV2kAMAosfw-19" style="edgeStyle=orthogonalEdgeStyle;rounded=0;orthogonalLoop=1;jettySize=auto;html=1;entryX=0;entryY=0.5;entryDx=0;entryDy=0;" parent="1" source="H6zXH7FBifV2kAMAosfw-4" target="H6zXH7FBifV2kAMAosfw-17" edge="1">
          <mxGeometry relative="1" as="geometry" />
        </mxCell>
        <mxCell id="H6zXH7FBifV2kAMAosfw-4" value="data_clean_traintest.csv" style="shape=document;whiteSpace=wrap;html=1;boundedLbl=1;" parent="1" vertex="1">
          <mxGeometry x="510" y="280" width="140" height="80" as="geometry" />
        </mxCell>
        <mxCell id="H6zXH7FBifV2kAMAosfw-11" style="edgeStyle=orthogonalEdgeStyle;rounded=0;orthogonalLoop=1;jettySize=auto;html=1;entryX=0.5;entryY=1;entryDx=0;entryDy=0;exitX=0.31;exitY=0.993;exitDx=0;exitDy=0;exitPerimeter=0;" parent="1" source="H6zXH7FBifV2kAMAosfw-5" target="H6zXH7FBifV2kAMAosfw-9" edge="1">
          <mxGeometry relative="1" as="geometry">
            <mxPoint x="550" y="570" as="sourcePoint" />
            <Array as="points">
              <mxPoint x="557" y="570" />
              <mxPoint x="480" y="570" />
              <mxPoint x="480" y="530" />
              <mxPoint x="60" y="530" />
              <mxPoint x="60" y="210" />
              <mxPoint x="410" y="210" />
            </Array>
          </mxGeometry>
        </mxCell>
        <mxCell id="H6zXH7FBifV2kAMAosfw-5" value="Casuísticas de estudiantes.csv" style="shape=document;whiteSpace=wrap;html=1;boundedLbl=1;" parent="1" vertex="1">
          <mxGeometry x="520" y="480" width="120" height="80" as="geometry" />
        </mxCell>
        <mxCell id="H6zXH7FBifV2kAMAosfw-10" style="edgeStyle=orthogonalEdgeStyle;rounded=0;orthogonalLoop=1;jettySize=auto;html=1;entryX=0;entryY=0.5;entryDx=0;entryDy=0;" parent="1" source="H6zXH7FBifV2kAMAosfw-8" target="H6zXH7FBifV2kAMAosfw-9" edge="1">
          <mxGeometry relative="1" as="geometry" />
        </mxCell>
        <mxCell id="H6zXH7FBifV2kAMAosfw-8" value="API Twitter" style="rounded=1;whiteSpace=wrap;html=1;" parent="1" vertex="1">
          <mxGeometry x="140" y="110" width="120" height="60" as="geometry" />
        </mxCell>
        <mxCell id="H6zXH7FBifV2kAMAosfw-14" style="edgeStyle=orthogonalEdgeStyle;rounded=0;orthogonalLoop=1;jettySize=auto;html=1;entryX=0;entryY=0.5;entryDx=0;entryDy=0;" parent="1" source="H6zXH7FBifV2kAMAosfw-9" target="H6zXH7FBifV2kAMAosfw-13" edge="1">
          <mxGeometry relative="1" as="geometry" />
        </mxCell>
        <mxCell id="H6zXH7FBifV2kAMAosfw-9" value="pedir datos a la api basados en los cluster definidos" style="rounded=0;whiteSpace=wrap;html=1;" parent="1" vertex="1">
          <mxGeometry x="350" y="110" width="120" height="60" as="geometry" />
        </mxCell>
        <mxCell id="H6zXH7FBifV2kAMAosfw-21" style="edgeStyle=orthogonalEdgeStyle;rounded=0;orthogonalLoop=1;jettySize=auto;html=1;entryX=0;entryY=0.5;entryDx=0;entryDy=0;" parent="1" source="H6zXH7FBifV2kAMAosfw-13" target="H6zXH7FBifV2kAMAosfw-20" edge="1">
          <mxGeometry relative="1" as="geometry" />
        </mxCell>
        <mxCell id="H6zXH7FBifV2kAMAosfw-13" value="Analisis de sentimiento" style="rounded=0;whiteSpace=wrap;html=1;" parent="1" vertex="1">
          <mxGeometry x="570" y="110" width="120" height="60" as="geometry" />
        </mxCell>
        <mxCell id="H6zXH7FBifV2kAMAosfw-27" style="edgeStyle=orthogonalEdgeStyle;rounded=0;orthogonalLoop=1;jettySize=auto;html=1;" parent="1" source="H6zXH7FBifV2kAMAosfw-15" target="H6zXH7FBifV2kAMAosfw-26" edge="1">
          <mxGeometry relative="1" as="geometry" />
        </mxCell>
        <mxCell id="H6zXH7FBifV2kAMAosfw-15" value="modelos ML/DL" style="rounded=0;whiteSpace=wrap;html=1;" parent="1" vertex="1">
          <mxGeometry x="1090" y="370" width="120" height="60" as="geometry" />
        </mxCell>
        <mxCell id="H6zXH7FBifV2kAMAosfw-22" style="edgeStyle=orthogonalEdgeStyle;rounded=0;orthogonalLoop=1;jettySize=auto;html=1;" parent="1" source="H6zXH7FBifV2kAMAosfw-17" target="H6zXH7FBifV2kAMAosfw-18" edge="1">
          <mxGeometry relative="1" as="geometry" />
        </mxCell>
        <mxCell id="H6zXH7FBifV2kAMAosfw-17" value="Enriquecer datos con score de analisis de sentimientos" style="rounded=0;whiteSpace=wrap;html=1;" parent="1" vertex="1">
          <mxGeometry x="707" y="360" width="120" height="60" as="geometry" />
        </mxCell>
        <mxCell id="H6zXH7FBifV2kAMAosfw-25" style="edgeStyle=orthogonalEdgeStyle;rounded=0;orthogonalLoop=1;jettySize=auto;html=1;entryX=0;entryY=0.5;entryDx=0;entryDy=0;" parent="1" source="H6zXH7FBifV2kAMAosfw-18" target="H6zXH7FBifV2kAMAosfw-15" edge="1">
          <mxGeometry relative="1" as="geometry" />
        </mxCell>
        <mxCell id="H6zXH7FBifV2kAMAosfw-18" value="data_clean_traintest.csv&lt;br&gt;data_clean_eval.csv" style="shape=document;whiteSpace=wrap;html=1;boundedLbl=1;" parent="1" vertex="1">
          <mxGeometry x="880" y="360" width="140" height="80" as="geometry" />
        </mxCell>
        <mxCell id="H6zXH7FBifV2kAMAosfw-23" style="edgeStyle=orthogonalEdgeStyle;rounded=0;orthogonalLoop=1;jettySize=auto;html=1;entryX=0.5;entryY=0;entryDx=0;entryDy=0;" parent="1" source="H6zXH7FBifV2kAMAosfw-20" target="H6zXH7FBifV2kAMAosfw-18" edge="1">
          <mxGeometry relative="1" as="geometry">
            <mxPoint x="860" y="400" as="targetPoint" />
          </mxGeometry>
        </mxCell>
        <mxCell id="H6zXH7FBifV2kAMAosfw-20" value="score por tipo/casuística" style="shape=document;whiteSpace=wrap;html=1;boundedLbl=1;" parent="1" vertex="1">
          <mxGeometry x="740" y="150" width="140" height="80" as="geometry" />
        </mxCell>
        <mxCell id="H6zXH7FBifV2kAMAosfw-29" style="edgeStyle=orthogonalEdgeStyle;rounded=0;orthogonalLoop=1;jettySize=auto;html=1;entryX=0;entryY=0.5;entryDx=0;entryDy=0;" parent="1" source="H6zXH7FBifV2kAMAosfw-26" target="H6zXH7FBifV2kAMAosfw-28" edge="1">
          <mxGeometry relative="1" as="geometry" />
        </mxCell>
        <mxCell id="H6zXH7FBifV2kAMAosfw-26" value="modelo.pkl&lt;br&gt;resultados de test/train" style="shape=document;whiteSpace=wrap;html=1;boundedLbl=1;" parent="1" vertex="1">
          <mxGeometry x="1290" y="370" width="140" height="80" as="geometry" />
        </mxCell>
        <mxCell id="yV0UHSyGWfe3rUmhllkB-1" style="edgeStyle=orthogonalEdgeStyle;rounded=0;orthogonalLoop=1;jettySize=auto;html=1;" parent="1" source="H6zXH7FBifV2kAMAosfw-28" edge="1">
          <mxGeometry relative="1" as="geometry">
            <mxPoint x="1640" y="400" as="targetPoint" />
          </mxGeometry>
        </mxCell>
        <mxCell id="H6zXH7FBifV2kAMAosfw-28" value="evaluación de modelos con datos de eval" style="rounded=0;whiteSpace=wrap;html=1;" parent="1" vertex="1">
          <mxGeometry x="1480" y="370" width="120" height="60" as="geometry" />
        </mxCell>
        <mxCell id="H6zXH7FBifV2kAMAosfw-33" style="edgeStyle=orthogonalEdgeStyle;rounded=0;orthogonalLoop=1;jettySize=auto;html=1;entryX=0.603;entryY=1.01;entryDx=0;entryDy=0;entryPerimeter=0;" parent="1" source="H6zXH7FBifV2kAMAosfw-31" target="H6zXH7FBifV2kAMAosfw-28" edge="1">
          <mxGeometry relative="1" as="geometry">
            <Array as="points">
              <mxPoint x="690" y="410" />
              <mxPoint x="690" y="570" />
              <mxPoint x="1552" y="570" />
            </Array>
          </mxGeometry>
        </mxCell>
        <mxCell id="H6zXH7FBifV2kAMAosfw-31" value="data_clean_eval.csv" style="shape=document;whiteSpace=wrap;html=1;boundedLbl=1;" parent="1" vertex="1">
          <mxGeometry x="520" y="370" width="140" height="80" as="geometry" />
        </mxCell>
        <mxCell id="yV0UHSyGWfe3rUmhllkB-4" style="edgeStyle=orthogonalEdgeStyle;rounded=0;orthogonalLoop=1;jettySize=auto;html=1;entryX=0;entryY=0.5;entryDx=0;entryDy=0;" parent="1" source="yV0UHSyGWfe3rUmhllkB-2" target="yV0UHSyGWfe3rUmhllkB-3" edge="1">
          <mxGeometry relative="1" as="geometry" />
        </mxCell>
        <mxCell id="yV0UHSyGWfe3rUmhllkB-2" value="selección de modelo" style="rounded=0;whiteSpace=wrap;html=1;" parent="1" vertex="1">
          <mxGeometry x="1640" y="370" width="120" height="60" as="geometry" />
        </mxCell>
        <mxCell id="yV0UHSyGWfe3rUmhllkB-3" value="presentación de resultados" style="rounded=0;whiteSpace=wrap;html=1;" parent="1" vertex="1">
          <mxGeometry x="1820" y="370" width="120" height="60" as="geometry" />
        </mxCell>
        <mxCell id="EDtmoaRXZTR5InwVRaYT-4" value="Boceto arquitectura" style="rounded=1;whiteSpace=wrap;html=1;" parent="1" vertex="1">
          <mxGeometry x="50" y="30" width="380" height="40" as="geometry" />
        </mxCell>
        <mxCell id="EDtmoaRXZTR5InwVRaYT-5" style="edgeStyle=orthogonalEdgeStyle;rounded=0;orthogonalLoop=1;jettySize=auto;html=1;entryX=0;entryY=0.5;entryDx=0;entryDy=0;" parent="1" source="EDtmoaRXZTR5InwVRaYT-6" target="EDtmoaRXZTR5InwVRaYT-10" edge="1">
          <mxGeometry relative="1" as="geometry" />
        </mxCell>
        <mxCell id="EDtmoaRXZTR5InwVRaYT-6" value="PISA 2018" style="shape=cylinder3;whiteSpace=wrap;html=1;boundedLbl=1;backgroundOutline=1;size=15;" parent="1" vertex="1">
          <mxGeometry x="120" y="950" width="100" height="120" as="geometry" />
        </mxCell>
        <mxCell id="EDtmoaRXZTR5InwVRaYT-7" style="edgeStyle=orthogonalEdgeStyle;rounded=0;orthogonalLoop=1;jettySize=auto;html=1;entryX=0;entryY=0.5;entryDx=0;entryDy=0;" parent="1" source="EDtmoaRXZTR5InwVRaYT-10" target="EDtmoaRXZTR5InwVRaYT-12" edge="1">
          <mxGeometry relative="1" as="geometry" />
        </mxCell>
        <mxCell id="EDtmoaRXZTR5InwVRaYT-8" style="edgeStyle=orthogonalEdgeStyle;rounded=0;orthogonalLoop=1;jettySize=auto;html=1;entryX=0;entryY=0.5;entryDx=0;entryDy=0;" parent="1" source="EDtmoaRXZTR5InwVRaYT-10" target="EDtmoaRXZTR5InwVRaYT-14" edge="1">
          <mxGeometry relative="1" as="geometry">
            <Array as="points">
              <mxPoint x="460" y="1010" />
              <mxPoint x="460" y="1140" />
            </Array>
          </mxGeometry>
        </mxCell>
        <mxCell id="EDtmoaRXZTR5InwVRaYT-9" style="edgeStyle=orthogonalEdgeStyle;rounded=0;orthogonalLoop=1;jettySize=auto;html=1;entryX=0;entryY=0.5;entryDx=0;entryDy=0;" parent="1" source="EDtmoaRXZTR5InwVRaYT-10" target="EDtmoaRXZTR5InwVRaYT-34" edge="1">
          <mxGeometry relative="1" as="geometry" />
        </mxCell>
        <mxCell id="EDtmoaRXZTR5InwVRaYT-10" value="Limpieza de datos" style="rounded=0;whiteSpace=wrap;html=1;" parent="1" vertex="1">
          <mxGeometry x="310" y="980" width="120" height="60" as="geometry" />
        </mxCell>
        <mxCell id="EDtmoaRXZTR5InwVRaYT-11" style="edgeStyle=orthogonalEdgeStyle;rounded=0;orthogonalLoop=1;jettySize=auto;html=1;entryX=0;entryY=0.5;entryDx=0;entryDy=0;" parent="1" source="EDtmoaRXZTR5InwVRaYT-12" target="EDtmoaRXZTR5InwVRaYT-24" edge="1">
          <mxGeometry relative="1" as="geometry" />
        </mxCell>
        <mxCell id="EDtmoaRXZTR5InwVRaYT-12" value="data_clean_train.csv&lt;br&gt;data_clean_val.csv" style="shape=document;whiteSpace=wrap;html=1;boundedLbl=1;" parent="1" vertex="1">
          <mxGeometry x="490" y="900" width="140" height="80" as="geometry" />
        </mxCell>
        <mxCell id="EDtmoaRXZTR5InwVRaYT-13" style="edgeStyle=orthogonalEdgeStyle;rounded=0;orthogonalLoop=1;jettySize=auto;html=1;entryX=0.5;entryY=1;entryDx=0;entryDy=0;exitX=0.31;exitY=0.993;exitDx=0;exitDy=0;exitPerimeter=0;" parent="1" source="EDtmoaRXZTR5InwVRaYT-14" target="EDtmoaRXZTR5InwVRaYT-18" edge="1">
          <mxGeometry relative="1" as="geometry">
            <mxPoint x="530" y="1190" as="sourcePoint" />
            <Array as="points">
              <mxPoint x="537" y="1190" />
              <mxPoint x="460" y="1190" />
              <mxPoint x="460" y="1150" />
              <mxPoint x="40" y="1150" />
              <mxPoint x="40" y="830" />
              <mxPoint x="390" y="830" />
            </Array>
          </mxGeometry>
        </mxCell>
        <mxCell id="EDtmoaRXZTR5InwVRaYT-14" value="Casuísticas de estudiantes.csv" style="shape=document;whiteSpace=wrap;html=1;boundedLbl=1;" parent="1" vertex="1">
          <mxGeometry x="500" y="1100" width="120" height="80" as="geometry" />
        </mxCell>
        <mxCell id="EDtmoaRXZTR5InwVRaYT-15" style="edgeStyle=orthogonalEdgeStyle;rounded=0;orthogonalLoop=1;jettySize=auto;html=1;entryX=0;entryY=0.5;entryDx=0;entryDy=0;" parent="1" source="EDtmoaRXZTR5InwVRaYT-16" target="EDtmoaRXZTR5InwVRaYT-18" edge="1">
          <mxGeometry relative="1" as="geometry" />
        </mxCell>
        <mxCell id="EDtmoaRXZTR5InwVRaYT-16" value="API Twitter" style="rounded=1;whiteSpace=wrap;html=1;" parent="1" vertex="1">
          <mxGeometry x="120" y="730" width="120" height="60" as="geometry" />
        </mxCell>
        <mxCell id="EDtmoaRXZTR5InwVRaYT-17" style="edgeStyle=orthogonalEdgeStyle;rounded=0;orthogonalLoop=1;jettySize=auto;html=1;entryX=0;entryY=0.5;entryDx=0;entryDy=0;" parent="1" source="EDtmoaRXZTR5InwVRaYT-18" target="EDtmoaRXZTR5InwVRaYT-20" edge="1">
          <mxGeometry relative="1" as="geometry" />
        </mxCell>
        <mxCell id="EDtmoaRXZTR5InwVRaYT-18" value="Llamadas a twitter semanales (manual) para recuperar el histórico" style="rounded=0;whiteSpace=wrap;html=1;" parent="1" vertex="1">
          <mxGeometry x="330" y="730" width="120" height="60" as="geometry" />
        </mxCell>
        <mxCell id="EDtmoaRXZTR5InwVRaYT-19" style="edgeStyle=orthogonalEdgeStyle;rounded=0;orthogonalLoop=1;jettySize=auto;html=1;entryX=0;entryY=0.5;entryDx=0;entryDy=0;" parent="1" source="EDtmoaRXZTR5InwVRaYT-20" target="EDtmoaRXZTR5InwVRaYT-28" edge="1">
          <mxGeometry relative="1" as="geometry" />
        </mxCell>
        <mxCell id="EDtmoaRXZTR5InwVRaYT-20" value="Analisis de sentimiento" style="rounded=0;whiteSpace=wrap;html=1;" parent="1" vertex="1">
          <mxGeometry x="550" y="730" width="120" height="60" as="geometry" />
        </mxCell>
        <mxCell id="EDtmoaRXZTR5InwVRaYT-21" style="edgeStyle=orthogonalEdgeStyle;rounded=0;orthogonalLoop=1;jettySize=auto;html=1;" parent="1" source="EDtmoaRXZTR5InwVRaYT-22" target="EDtmoaRXZTR5InwVRaYT-30" edge="1">
          <mxGeometry relative="1" as="geometry" />
        </mxCell>
        <mxCell id="EDtmoaRXZTR5InwVRaYT-22" value="modelos ML/DL" style="rounded=0;whiteSpace=wrap;html=1;" parent="1" vertex="1">
          <mxGeometry x="1070" y="990" width="120" height="60" as="geometry" />
        </mxCell>
        <mxCell id="EDtmoaRXZTR5InwVRaYT-23" style="edgeStyle=orthogonalEdgeStyle;rounded=0;orthogonalLoop=1;jettySize=auto;html=1;" parent="1" source="EDtmoaRXZTR5InwVRaYT-24" target="EDtmoaRXZTR5InwVRaYT-26" edge="1">
          <mxGeometry relative="1" as="geometry" />
        </mxCell>
        <mxCell id="EDtmoaRXZTR5InwVRaYT-24" value="Enriquecer datos con score de analisis de sentimientos" style="rounded=0;whiteSpace=wrap;html=1;" parent="1" vertex="1">
          <mxGeometry x="687" y="980" width="120" height="60" as="geometry" />
        </mxCell>
        <mxCell id="EDtmoaRXZTR5InwVRaYT-25" style="edgeStyle=orthogonalEdgeStyle;rounded=0;orthogonalLoop=1;jettySize=auto;html=1;entryX=0;entryY=0.5;entryDx=0;entryDy=0;" parent="1" source="EDtmoaRXZTR5InwVRaYT-26" target="EDtmoaRXZTR5InwVRaYT-22" edge="1">
          <mxGeometry relative="1" as="geometry" />
        </mxCell>
        <mxCell id="EDtmoaRXZTR5InwVRaYT-26" value="data_clean_traintest.csv&lt;br&gt;data_clean_eval.csv" style="shape=document;whiteSpace=wrap;html=1;boundedLbl=1;" parent="1" vertex="1">
          <mxGeometry x="860" y="980" width="140" height="80" as="geometry" />
        </mxCell>
        <mxCell id="EDtmoaRXZTR5InwVRaYT-27" style="edgeStyle=orthogonalEdgeStyle;rounded=0;orthogonalLoop=1;jettySize=auto;html=1;entryX=0.5;entryY=0;entryDx=0;entryDy=0;" parent="1" source="EDtmoaRXZTR5InwVRaYT-28" target="EDtmoaRXZTR5InwVRaYT-26" edge="1">
          <mxGeometry relative="1" as="geometry">
            <mxPoint x="840" y="1020" as="targetPoint" />
          </mxGeometry>
        </mxCell>
        <mxCell id="EDtmoaRXZTR5InwVRaYT-28" value="score por tipo/casuística" style="shape=document;whiteSpace=wrap;html=1;boundedLbl=1;" parent="1" vertex="1">
          <mxGeometry x="720" y="770" width="140" height="80" as="geometry" />
        </mxCell>
        <mxCell id="EDtmoaRXZTR5InwVRaYT-29" style="edgeStyle=orthogonalEdgeStyle;rounded=0;orthogonalLoop=1;jettySize=auto;html=1;entryX=0;entryY=0.5;entryDx=0;entryDy=0;" parent="1" source="EDtmoaRXZTR5InwVRaYT-30" target="EDtmoaRXZTR5InwVRaYT-32" edge="1">
          <mxGeometry relative="1" as="geometry" />
        </mxCell>
        <mxCell id="EDtmoaRXZTR5InwVRaYT-30" value="modelo.pkl&lt;br&gt;resultados de test/train" style="shape=document;whiteSpace=wrap;html=1;boundedLbl=1;" parent="1" vertex="1">
          <mxGeometry x="1270" y="990" width="140" height="80" as="geometry" />
        </mxCell>
        <mxCell id="EDtmoaRXZTR5InwVRaYT-31" style="edgeStyle=orthogonalEdgeStyle;rounded=0;orthogonalLoop=1;jettySize=auto;html=1;" parent="1" source="EDtmoaRXZTR5InwVRaYT-32" edge="1">
          <mxGeometry relative="1" as="geometry">
            <mxPoint x="1620" y="1020" as="targetPoint" />
          </mxGeometry>
        </mxCell>
        <mxCell id="EDtmoaRXZTR5InwVRaYT-32" value="evaluación de modelos con datos de test" style="rounded=0;whiteSpace=wrap;html=1;" parent="1" vertex="1">
          <mxGeometry x="1460" y="990" width="120" height="60" as="geometry" />
        </mxCell>
        <mxCell id="EDtmoaRXZTR5InwVRaYT-33" style="edgeStyle=orthogonalEdgeStyle;rounded=0;orthogonalLoop=1;jettySize=auto;html=1;entryX=0.603;entryY=1.01;entryDx=0;entryDy=0;entryPerimeter=0;" parent="1" source="EDtmoaRXZTR5InwVRaYT-34" target="EDtmoaRXZTR5InwVRaYT-32" edge="1">
          <mxGeometry relative="1" as="geometry">
            <Array as="points">
              <mxPoint x="670" y="1030" />
              <mxPoint x="670" y="1190" />
              <mxPoint x="1532" y="1190" />
            </Array>
          </mxGeometry>
        </mxCell>
        <mxCell id="EDtmoaRXZTR5InwVRaYT-34" value="data_clean_test.csv" style="shape=document;whiteSpace=wrap;html=1;boundedLbl=1;" parent="1" vertex="1">
          <mxGeometry x="500" y="990" width="140" height="80" as="geometry" />
        </mxCell>
        <mxCell id="EDtmoaRXZTR5InwVRaYT-35" style="edgeStyle=orthogonalEdgeStyle;rounded=0;orthogonalLoop=1;jettySize=auto;html=1;entryX=0;entryY=0.5;entryDx=0;entryDy=0;" parent="1" source="EDtmoaRXZTR5InwVRaYT-36" target="EDtmoaRXZTR5InwVRaYT-37" edge="1">
          <mxGeometry relative="1" as="geometry" />
        </mxCell>
        <mxCell id="EDtmoaRXZTR5InwVRaYT-36" value="selección de modelo" style="rounded=0;whiteSpace=wrap;html=1;" parent="1" vertex="1">
          <mxGeometry x="1620" y="990" width="120" height="60" as="geometry" />
        </mxCell>
        <mxCell id="EDtmoaRXZTR5InwVRaYT-37" value="presentación de resultados" style="rounded=0;whiteSpace=wrap;html=1;" parent="1" vertex="1">
          <mxGeometry x="1800" y="990" width="120" height="60" as="geometry" />
        </mxCell>
        <mxCell id="EDtmoaRXZTR5InwVRaYT-38" value="&lt;b&gt;&lt;font color=&quot;#2457ff&quot;&gt;Arquitectura final&lt;/font&gt;&lt;/b&gt;" style="rounded=1;whiteSpace=wrap;html=1;" parent="1" vertex="1">
          <mxGeometry x="30" y="650" width="220" height="40" as="geometry" />
        </mxCell>
      </root>
    </mxGraphModel>
  </diagram>
</mxfile>
